<?xml version="1.0" encoding="UTF-8"?>
<!DOCTYPE svg PUBLIC "-//W3C//DTD SVG 1.1//EN" "http://www.w3.org/Graphics/SVG/1.1/DTD/svg11.dtd">
<!-- Creator: CorelDRAW 2019 (64 Bit) -->
<svg xmlns="http://www.w3.org/2000/svg" xml:space="preserve" width="73.2848mm" height="19.2888mm" version="1.1" style="shape-rendering:geometricPrecision; text-rendering:geometricPrecision; image-rendering:optimizeQuality; fill-rule:evenodd; clip-rule:evenodd"
viewBox="0 0 784.49 206.48"
 xmlns:xlink="http://www.w3.org/1999/xlink">
 <defs>
  <style type="text/css">
   <![CDATA[
    .fil0 {fill:#41A152}
    .fil1 {fill:black;fill-rule:nonzero}
   ]]>
  </style>
 </defs>
 <g id="Camada_x0020_1">
  <metadata id="CorelCorpID_0Corel-Layer"/>
  <g id="_3013688381312">
   <path class="fil0" d="M22.5 79.46c2.73,-5.42 6.02,-11.56 12.64,-9.77 3.26,0.88 5.74,6.42 -0.42,9.83 -6.75,3.72 -8.03,-2.22 -13.79,8.41 -0.01,0.03 1.37,-3.38 -2.94,-7.63 -23.03,-22.7 2.58,-34.58 3.91,-8.18 0.06,1.27 -0.42,6.06 0.59,7.35zm64.57 27.61c-0.17,-0.57 -0.34,-1.12 -0.51,-1.65l-0 -0.05 -0 0.03c-0.98,-3.08 -1.97,-5.6 -2.76,-7.2 -0.75,-1.51 -2.55,-0.6 -1.65,1.28 1.56,2.41 2.92,5.4 4,8.71 -1.47,7.83 -4.55,4.39 -8.73,9.57 -4.21,5.22 -0.03,9.22 3.17,8.82 6.5,-0.81 7.18,-7.41 7.63,-13.18 1.36,0.78 2.66,5.18 3.17,6.28 10.69,22.82 29.01,3.1 0.5,-8.63 -2.9,-1.19 -4.23,-2.78 -4.83,-3.97zm-75.88 73.02c1.97,0.86 2.79,1.98 3.8,2.98 1.15,1.15 2.54,2.15 6.19,2.42 0.01,0 -7.25,3.06 -10.39,4.2 -7.86,2.86 -11.44,-0.23 -10.67,-4.93 0.72,-4.43 4.1,-7.72 11.08,-4.68zm19.7 2.93c-7.04,-0.34 -15.12,-0.93 -16.34,-8.81 -0.6,-3.88 4.11,-9.13 10.63,-4.19 7.14,5.41 0.25,10.52 14.26,11.61 0.03,0 -3.06,-0.81 -5.54,5.77 -13.23,35.16 -37.94,13.58 -10.54,-0.29 1.31,-0.67 6.63,-2.41 7.53,-4.1zm22.76 -5.81c-6.83,1.72 -14.73,3.5 -18.19,-3.68 -1.7,-3.54 1.28,-9.92 8.95,-7.09 8.39,3.1 3.29,9.98 17.01,6.97 0.03,-0.01 -3.16,0.11 -3.62,7.13 -2.46,37.47 -32.34,23.99 -10.16,2.78 1.06,-1.02 5.64,-4.23 6.01,-6.1zm16.99 -13.56c-5.82,3.97 -12.62,8.36 -18.34,2.81 -2.82,-2.73 -2.22,-9.76 5.96,-9.74 8.95,0.02 6.53,8.24 18.37,0.68 0.03,-0.02 -2.93,1.2 -0.94,7.94 10.61,36.02 -22.09,33.67 -8.58,6.11 0.65,-1.32 3.84,-5.91 3.54,-7.8zm12.22 -14.26c-4.14,4.04 -9,8.56 -14.42,4.9 -2.67,-1.81 -3.19,-7.57 3.42,-8.73 7.24,-1.27 7.47,3.58 15.96,-4.22 0.02,-0.02 -3.21,3.53 -0.64,8.7 13.73,27.6 -13.04,30.38 -6.06,6.17 0.34,-1.16 2.26,-5.33 1.74,-6.81zm6.82 -18.63c-2.6,5.17 -5.73,11.02 -12.05,9.32 -3.11,-0.84 -5.47,-6.13 0.4,-9.37 6.43,-3.55 7.65,2.12 13.14,-8.01 0.01,-0.02 -1.31,3.22 2.8,7.27 21.95,21.64 -2.46,32.97 -3.73,7.8 -0.06,-1.21 0.4,-5.77 -0.56,-7.01zm-64.44 -26.44c0.17,0.59 0.35,1.17 0.53,1.73l0 0.06 0 -0.03c1.02,3.23 2.06,5.88 2.89,7.55 0.78,1.59 2.68,0.63 1.73,-1.34 -1.64,-2.53 -3.07,-5.66 -4.2,-9.13 1.55,-8.21 4.77,-4.6 9.16,-10.04 4.42,-5.48 0.03,-9.67 -3.32,-9.26 -6.81,0.85 -7.53,7.78 -8.01,13.83 -1.43,-0.82 -2.79,-5.43 -3.33,-6.58 -11.21,-23.94 -30.43,-3.25 -0.53,9.06 3.05,1.25 4.43,2.91 5.07,4.16zm79.6 -76.6c-2.07,-0.9 -2.93,-2.08 -3.98,-3.13 -1.21,-1.21 -2.67,-2.25 -6.49,-2.54 -0.01,0 7.6,-3.21 10.9,-4.41 8.25,-3 12,0.24 11.2,5.17 -0.76,4.64 -4.3,8.1 -11.63,4.9zm-20.67 -3.07c7.39,0.35 15.86,0.97 17.15,9.24 0.63,4.07 -4.31,9.58 -11.15,4.39 -7.49,-5.67 -0.27,-11.03 -14.96,-12.18 -0.04,-0 3.21,0.85 5.81,-6.06 13.88,-36.89 39.79,-14.25 11.05,0.31 -1.38,0.7 -6.95,2.53 -7.9,4.3zm-23.88 6.1c7.17,-1.81 15.45,-3.67 19.08,3.86 1.79,3.71 -1.35,10.41 -9.39,7.44 -8.81,-3.25 -3.45,-10.47 -17.84,-7.31 -0.04,0.01 3.32,-0.12 3.8,-7.48 2.58,-39.3 33.93,-25.17 10.66,-2.91 -1.12,1.07 -5.92,4.43 -6.31,6.4zm-17.82 14.23c6.11,-4.17 13.24,-8.77 19.24,-2.95 2.96,2.87 2.32,10.23 -6.25,10.22 -9.39,-0.02 -6.85,-8.64 -19.27,-0.72 -0.03,0.02 3.07,-1.25 0.99,-8.33 -11.13,-37.78 23.17,-35.32 9,-6.41 -0.68,1.39 -4.03,6.2 -3.71,8.18zm-12.82 14.96c4.34,-4.24 9.44,-8.98 15.13,-5.14 2.8,1.89 3.34,7.94 -3.59,9.15 -7.59,1.33 -7.84,-3.75 -16.74,4.43 -0.02,0.02 3.37,-3.71 0.67,-9.12 -14.41,-28.95 13.68,-31.87 6.36,-6.47 -0.35,1.22 -2.37,5.59 -1.83,7.15z"/>
   <g>
    <path class="fil1" d="M480.28 73.61c-2.99,-6.63 -4.17,-7.59 -7.81,-8.34 -0.86,-0.21 -1.82,-0.32 -2.46,-0.32 -1.17,-0.21 -1.71,-0.64 -1.71,-1.18 0,-0.75 0.86,-0.96 2.25,-0.96 5.78,0 11.98,0.32 16.26,0.32 3.74,0 9.52,-0.32 17.86,-0.32 1.61,0 2.46,0.43 2.46,1.07 0,0.64 -0.64,1.07 -1.61,1.07 -1.28,0.11 -1.93,0.11 -2.89,0.32 -2.78,0.43 -3.21,1.6 -3.21,2.68 0,1.39 0.64,3.53 2.46,8.13 5.03,13.05 11.77,28.99 16.58,41.51 4.39,-9.84 15.51,-36.05 19.04,-46.11 0.53,-1.18 0.86,-2.57 0.86,-3.53 0,-1.39 -0.64,-2.14 -2.57,-2.46 -1.28,-0.32 -3.1,-0.43 -4.28,-0.54 -1.39,-0.1 -1.93,-0.43 -1.93,-1.07 0,-0.64 0.53,-1.07 2.35,-1.07 7.06,0 12.3,0.32 13.91,0.32 1.6,0 8.56,-0.32 11.87,-0.32 1.61,0 2.36,0.32 2.36,1.07 0,0.75 -0.54,1.07 -1.93,1.07 -1.28,0.11 -3,0.11 -4.71,0.96 -2.24,1.07 -3.74,3.32 -6.74,9.63 -4.28,9.2 -8.13,17.87 -14.23,31.45 -6.85,15.19 -11.45,24.92 -14.23,30.49 -3.1,6.31 -4.17,7.7 -5.56,7.7 -1.5,0 -2.36,-1.5 -4.39,-6.42l-28.03 -65.15z"/>
    <path class="fil1" d="M285.84 114.47c0.64,0 0.64,-0.32 0.53,-0.53l-9.41 -22.89c-0.32,-0.75 -0.54,-0.53 -0.75,0l-9.09 22.89c-0.1,0.32 0.11,0.53 0.43,0.53l18.29 0zm-21.39 8.56c-0.54,0 -0.75,0.21 -0.96,0.75l-3.31 8.77c-1.07,2.78 -1.71,5.56 -1.71,6.85 0,2.03 0.96,3 3.21,3.21 1.17,0.21 2.89,0.32 3.74,0.43 1.61,0 1.93,0.53 1.93,1.07 0,0.86 -0.86,1.07 -2.24,1.07 -4.81,0 -8.45,-0.32 -14.12,-0.32 -1.18,0 -8.24,0.32 -13.59,0.32 -1.5,0 -2.14,-0.43 -2.14,-1.07 0,-0.86 0.75,-1.07 2.03,-1.07 1.28,-0.11 2.36,-0.22 3.42,-0.43 3.74,-0.75 5.88,-4.07 8.13,-9.2l28.56 -64.61c2.03,-4.6 3.21,-6.2 4.39,-6.2 1.07,0 2.03,1.5 3.85,5.35 2.78,5.99 20.75,46.96 28.03,63.22 3.64,8.34 5.99,10.91 9.73,11.45 1.18,0.32 2.46,0.32 3.42,0.43 1.39,0 2.03,0.43 2.03,1.07 0,0.75 -0.75,1.07 -2.78,1.07 -10.48,0 -22.68,-0.21 -29.52,-0.32 -1.71,0 -2.36,-0.32 -2.36,-0.96 0,-0.64 0.53,-1.07 1.5,-1.28 1.18,-0.21 1.6,-0.96 1.28,-1.93l-7.17 -17.01c-0.11,-0.43 -0.53,-0.64 -0.86,-0.64l-24.5 0z"/>
    <path class="fil1" d="M397.82 113.94c0,10.8 -0.32,18.51 1.5,20.75 1.5,2.03 3.53,2.57 12.41,2.57 5.88,0 9.31,-0.11 12.3,-1.71 2.57,-1.18 4.39,-3.96 5.56,-8.99 0.32,-1.18 0.54,-2.03 1.39,-2.03 0.75,0 0.86,0.54 0.86,2.03 0,2.46 -1.18,12.62 -2.25,15.73 -0.86,2.78 -1.71,2.89 -5.99,2.89 -14.76,0 -24.71,-0.64 -36.05,-0.64 -5.03,0 -10.8,0.32 -16.69,0.32 -1.5,0 -2.35,-0.21 -2.35,-1.18 0,-0.64 0.64,-0.96 2.14,-0.96 1.28,-0.11 2.46,-0.22 3.64,-0.43 3.85,-0.64 3.96,-2.57 4.28,-11.13 0.21,-4.28 0.32,-10.7 0.32,-17.33l0 -18.83c0,-17.44 -0.1,-19.36 -0.32,-22.79 -0.21,-2.99 -0.96,-4.81 -3.64,-5.56 -0.97,-0.32 -2.57,-0.43 -4.18,-0.53 -1.17,0 -2.24,-0.21 -2.24,-1.07 0,-0.86 1.07,-1.07 3.21,-1.07 6.1,0 11.66,0.32 15.83,0.32 0.96,0 14.23,-0.32 18.08,-0.32 1.93,0 2.57,0.32 2.57,0.96 0,0.96 -1.07,1.18 -2.57,1.18 -1.07,0.11 -2.14,0.11 -3.64,0.43 -2.89,0.53 -3.64,2.57 -3.85,6.31 -0.21,3.42 -0.32,5.56 -0.32,23.21l0 17.86z"/>
    <path class="fil1" d="M736.67 142.18c-1.82,-0.75 -2.36,-2.14 -2.36,-4.28 0,-8.67 0.32,-12.73 0.64,-15.73 0.22,-1.93 0.64,-2.57 1.28,-2.57 0.75,0 0.86,0.96 0.96,1.82 0.11,1.07 0.21,2.03 0.54,3.32 1.82,8.77 9.84,13.8 18.18,13.8 10.16,0 13.27,-5.24 13.27,-9.84 0,-4.49 -0.86,-8.24 -9.95,-14.44l-6.63 -4.6c-13.05,-9.2 -16.69,-16.69 -16.69,-26.1 0,-12.3 10.16,-22.25 27.28,-22.25 4.6,0 7.81,0.22 12.3,1.07 1.71,0.32 3.53,0.75 5.24,1.28 1.07,0.32 1.39,0.64 1.39,1.5 -0.21,3.42 -0.43,5.56 -0.43,15.08 0,1.93 -0.32,2.67 -1.18,2.67 -0.53,0 -0.96,-0.32 -1.18,-2.03 -0.1,-1.07 -0.43,-3.74 -1.93,-6.2 -2.03,-3.42 -6.95,-7.06 -14.66,-7.06 -8.77,0 -11.98,4.92 -11.98,9.84 0,3.64 1.28,7.81 8.56,12.73l5.46 3.64c14.97,9.95 19.68,16.58 19.68,27.39 0,7.38 -3.32,14.65 -11.34,19.36 -6.21,3.74 -13.05,4.6 -18.61,4.6 -8.02,0 -13.69,-1.07 -17.86,-3z"/>
    <path class="fil1" d="M147.85 142.18c-1.82,-0.75 -2.35,-2.14 -2.35,-4.28 0,-8.67 0.32,-12.73 0.64,-15.73 0.21,-1.93 0.64,-2.57 1.28,-2.57 0.75,0 0.86,0.96 0.96,1.82 0.11,1.07 0.21,2.03 0.53,3.32 1.82,8.77 9.84,13.8 18.19,13.8 10.16,0 13.26,-5.24 13.26,-9.84 0,-4.49 -0.86,-8.24 -9.95,-14.44l-6.63 -4.6c-13.05,-9.2 -16.69,-16.69 -16.69,-26.1 0,-12.3 10.16,-22.25 27.28,-22.25 4.6,0 7.81,0.22 12.3,1.07 1.71,0.32 3.53,0.75 5.24,1.28 1.07,0.32 1.39,0.64 1.39,1.5 -0.21,3.42 -0.43,5.56 -0.43,15.08 0,1.93 -0.32,2.67 -1.18,2.67 -0.53,0 -0.96,-0.32 -1.18,-2.03 -0.11,-1.07 -0.43,-3.74 -1.93,-6.2 -2.03,-3.42 -6.95,-7.06 -14.65,-7.06 -8.77,0 -11.98,4.92 -11.98,9.84 0,3.64 1.28,7.81 8.56,12.73l5.46 3.64c14.98,9.95 19.68,16.58 19.68,27.39 0,7.38 -3.32,14.65 -11.34,19.36 -6.2,3.74 -13.05,4.6 -18.61,4.6 -8.02,0 -13.69,-1.07 -17.87,-3z"/>
    <path class="fil1" d="M626.61 109.87c0,14.76 2.25,20.97 8.13,25.14 4.38,2.89 8.02,3 10.7,3 3.42,0 8.02,-0.75 11.77,-3.96 5.99,-5.14 5.99,-16.37 5.99,-27.38l0 -12.84c0,-15.73 0,-18.51 -0.22,-21.93 -0.21,-4.06 -1.07,-5.88 -4.6,-6.52 -1.18,-0.21 -1.82,-0.21 -3.96,-0.43 -1.39,0 -1.93,-0.43 -1.93,-1.07 0,-0.64 0.54,-1.07 2.46,-1.07 6.1,0 12.62,0.32 14.33,0.32 1.92,0 8.88,-0.32 14.12,-0.32 1.61,0 2.24,0.32 2.24,1.07 0,0.53 -0.43,0.96 -1.82,1.07 -1.18,0.11 -1.82,0.11 -3.32,0.43 -2.89,0.53 -3.74,2.14 -4.07,6.52 -0.21,3.42 -0.32,6.2 -0.32,21.93l0 10.48c0,12.2 -0.54,25.35 -10.91,33.81 -6.63,5.56 -14.98,7.06 -22.25,7.06 -9.41,0 -18.82,-1.39 -25.46,-7.17 -5.67,-4.71 -9.95,-12.52 -9.95,-27.92l0 -16.26c0,-16.58 0,-19.58 -0.32,-23 -0.21,-3 -0.85,-4.39 -3.32,-5.14 -1.18,-0.43 -3.64,-0.64 -4.6,-0.75 -1.6,-0.11 -2.25,-0.53 -2.25,-1.18 0,-0.64 0.86,-0.96 2.89,-0.96 4.6,0 15.41,0.32 16.37,0.32 0.86,0 13.59,-0.32 17.44,-0.32 1.82,0 2.35,0.32 2.35,0.96 0,0.86 -0.53,1.07 -1.93,1.18 -0.96,0.11 -2.46,0.22 -3.53,0.43 -3,0.64 -3.53,2.89 -3.74,6.31 -0.22,3.42 -0.32,8.45 -0.32,22.14l0 16.05z"/>
   </g>
  </g>
 </g>
</svg>
